<?xml version="1.0" encoding="utf-8"?>
<svg version="1.1" id="Layer_1" xmlns="http://www.w3.org/2000/svg" xmlns:xlink="http://www.w3.org/1999/xlink" x="0px" y="0px"
	 viewBox="0 0 401 401" style="enable-background:new 0 0 401 401;" xml:space="preserve">
<path d="M367.1,19.5c-23.9-23.9-62.7-23.9-86.7,0L37.5,262.4c-1.7,1.7-2.9,3.7-3.5,6L2.1,383.7c-1.3,4.7,0,9.8,3.5,13.3
	c3.5,3.5,8.5,4.8,13.3,3.5l115.3-32c2.3-0.6,4.3-1.8,6-3.5l242.9-242.9c23.9-23.9,23.9-62.7,0-86.7L367.1,19.5z M67.2,271.3
	L266,72.4l64.1,64.1L131.3,335.4L67.2,271.3z M54.4,297l51.2,51.2l-70.9,19.6L54.4,297z M363.8,102.9l-14.4,14.4l-64.1-64.1
	l14.4-14.4c13.3-13.3,34.8-13.3,48.1,0l16,16C377.1,68,377.1,89.6,363.8,102.9z"/>
</svg>
