<?xml version="1.0" encoding="utf-8"?>
<!-- Generator: Adobe Illustrator 22.1.0, SVG Export Plug-In . SVG Version: 6.00 Build 0)  -->
<svg version="1.1" id="Layer_1" xmlns="http://www.w3.org/2000/svg" xmlns:xlink="http://www.w3.org/1999/xlink" x="0px" y="0px"
	 viewBox="0 0 48 12" style="enable-background:new 0 0 48 12;" xml:space="preserve">
<style type="text/css">
	.st0{fill:#FFFFFF;}
	.st1{fill:#00743F;}
</style>
<g>
	<path class="st0" d="M3.3,6.7C3.3,6.7,3.3,6.7,3.3,6.7c0.1,0,0.1-0.1,0.2-0.1c0,0,0.1,0,0.1,0c0,0,0.1,0.1,0.1,0.1L4,7.4
		c0,0,0,0,0,0.1c0,0,0,0,0,0.1c0,0.1,0,0.1,0,0.1S3.9,7.7,3.9,7.7C3.7,7.8,3.5,7.9,3.3,8C3.1,8.1,2.8,8.1,2.6,8.1
		c-0.2,0-0.4,0-0.6-0.1C1.8,8,1.6,7.9,1.4,7.8C1.3,7.7,1.1,7.6,1,7.5S0.7,7.2,0.6,7C0.5,6.9,0.5,6.7,0.4,6.5
		C0.4,6.3,0.3,6.1,0.3,5.9c0-0.2,0-0.4,0.1-0.6c0.1-0.2,0.1-0.4,0.2-0.5C0.7,4.6,0.9,4.4,1,4.3S1.3,4,1.4,3.9C1.6,3.8,1.8,3.8,2,3.7
		c0.2-0.1,0.4-0.1,0.6-0.1c0.2,0,0.5,0,0.7,0.1C3.5,3.8,3.7,3.9,3.9,4l0,0C3.9,4,3.9,4.1,4,4.1c0,0,0,0.1,0,0.1c0,0,0,0.1,0,0.1
		L3.7,4.9C3.6,5,3.5,5.1,3.4,5.1c0,0,0,0-0.1,0c0,0-0.1,0-0.1-0.1C3.2,5,3.1,4.9,2.9,4.9c-0.1,0-0.2-0.1-0.4-0.1
		c-0.1,0-0.3,0-0.4,0.1C2,4.9,1.9,5,1.9,5.1C1.8,5.2,1.7,5.3,1.7,5.5c0,0.1-0.1,0.3-0.1,0.4c0,0.2,0,0.3,0.1,0.4
		c0,0.1,0.1,0.2,0.2,0.3C1.9,6.7,2,6.8,2.2,6.9C2.3,6.9,2.4,7,2.6,7c0.1,0,0.3,0,0.4-0.1S3.2,6.8,3.3,6.7z"/>
	<path class="st0" d="M4.7,4c0,0,0-0.1,0-0.1c0,0,0-0.1,0.1-0.1c0.1,0,0.1-0.1,0.2-0.1h0.5c0,0,0.1,0,0.1,0c0,0,0,0,0.1,0.1
		c0,0,0,0.1,0,0.1c0,0,0,0.1,0,0.1c0,0,0,0,0,0.1c0,0,0,0.1,0,0.1s0,0.1,0,0.1c0,0,0,0.1,0,0.1C6,4.3,6,4.2,6.1,4.1
		C6.2,4,6.2,3.9,6.3,3.9c0.1-0.1,0.1-0.1,0.2-0.2c0.1,0,0.2-0.1,0.3-0.1c0.1,0,0.2,0,0.3,0c0.1,0,0.2,0,0.3,0.1
		c0.1,0,0.2,0.1,0.3,0.1C7.8,3.9,7.9,4,8,4.1c0.2,0.1,0.2,0.2,0.1,0.4L7.8,5c0,0.1-0.1,0.1-0.2,0.1c-0.1,0-0.1,0-0.2,0
		C7.3,5,7.2,4.9,7.1,4.9C7,4.8,6.9,4.8,6.7,4.8c-0.1,0-0.2,0-0.2,0c-0.1,0-0.1,0.1-0.2,0.1C6.3,5,6.2,5,6.2,5.1
		c0,0.1-0.1,0.1-0.1,0.2v2.5C6,7.9,6,8,6,8c0,0-0.1,0.1-0.2,0.1H5C4.8,8.1,4.7,8,4.7,7.8V4z"/>
	<path class="st0" d="M12.8,7.8c0,0,0,0.1,0,0.1c0,0,0,0.1-0.1,0.1c0,0-0.1,0-0.1,0s-0.1,0-0.1,0h-0.7c0,0-0.1,0-0.1,0
		c0,0-0.1,0-0.1-0.1c0,0,0-0.1,0-0.1s0-0.1,0-0.1l-0.1-0.3c-0.1,0.1-0.1,0.1-0.2,0.2c-0.1,0.1-0.2,0.1-0.2,0.2C11,8,10.9,8,10.8,8.1
		c-0.1,0-0.2,0.1-0.3,0.1c-0.2,0-0.4,0-0.6-0.1C9.6,8,9.5,7.9,9.3,7.8C9.1,7.7,9,7.6,8.9,7.5C8.7,7.4,8.6,7.2,8.5,7
		C8.4,6.9,8.3,6.7,8.3,6.5C8.2,6.3,8.2,6.1,8.2,5.9c0-0.3,0.1-0.6,0.2-0.9c0.1-0.3,0.3-0.5,0.5-0.7c0.2-0.2,0.4-0.4,0.7-0.5
		s0.6-0.2,0.9-0.2c0.1,0,0.3,0,0.4,0.1s0.2,0.1,0.3,0.2c0.1,0.1,0.2,0.1,0.3,0.2c0.1,0.1,0.1,0.2,0.2,0.3l0.1-0.4
		c0-0.1,0-0.1,0.1-0.1s0-0.1,0-0.1c0,0,0,0,0.1,0c0,0,0.1,0,0.1,0h0.5c0,0,0.1,0,0.1,0s0.1,0,0.1,0c0,0,0.1,0.1,0.1,0.1
		c0,0,0,0.1,0,0.1V7.8z M9.4,5.9c0,0.2,0,0.3,0.1,0.4c0,0.1,0.1,0.2,0.2,0.3C9.8,6.7,9.9,6.8,10,6.9C10.1,6.9,10.3,7,10.4,7
		c0.2,0,0.3,0,0.4-0.1c0.1-0.1,0.2-0.1,0.3-0.2c0.1-0.1,0.2-0.2,0.2-0.3c0.1-0.1,0.1-0.3,0.1-0.4c0-0.1,0-0.3-0.1-0.4
		c-0.1-0.1-0.1-0.2-0.2-0.4C11.1,5,11,4.9,10.9,4.9c-0.1-0.1-0.3-0.1-0.4-0.1c-0.1,0-0.3,0-0.4,0.1C9.9,4.9,9.8,5,9.7,5.1
		C9.6,5.2,9.6,5.3,9.5,5.5C9.5,5.6,9.4,5.7,9.4,5.9z"/>
	<path class="st0" d="M14.1,3.8c0-0.2,0-0.4,0.1-0.6c0.1-0.2,0.2-0.4,0.4-0.5c0.2-0.1,0.3-0.3,0.5-0.3c0.2-0.1,0.4-0.1,0.6-0.1h0.1
		c0.1,0,0.1,0,0.2,0.1c0,0,0.1,0.1,0.1,0.2v0.7c0,0.1,0,0.2-0.1,0.2c0,0.1-0.1,0.1-0.2,0.1h-0.1c0,0-0.1,0-0.1,0c0,0-0.1,0-0.1,0.1
		c0,0-0.1,0.1-0.1,0.1s0,0.1,0,0.1v0.4h0.5c0.1,0,0.1,0,0.2,0.1s0.1,0.1,0.1,0.2v0.6c0,0.1,0,0.2-0.1,0.2S16,5.3,15.9,5.3h-0.5v2.5
		c0,0.1,0,0.2-0.1,0.2c-0.1,0-0.1,0.1-0.2,0.1h-0.7c-0.1,0-0.1,0-0.2-0.1c0-0.1-0.1-0.1-0.1-0.2V5.3h-0.4c-0.1,0-0.1,0-0.2-0.1
		c0,0-0.1-0.1-0.1-0.2V4.4c0-0.1,0-0.2,0.1-0.2c0,0,0.1-0.1,0.2-0.1h0.4V3.8z"/>
	<path class="st0" d="M16.9,3c0-0.1,0-0.1,0.1-0.2c0,0,0.1-0.1,0.2-0.1l0.8-0.3c0,0,0,0,0,0c0,0,0,0,0,0c0.1,0,0.1,0,0.2,0.1
		c0,0,0,0.1,0,0.2l0,1.1h0.6c0.1,0,0.1,0,0.2,0.1C19,3.9,19,4,19,4.1v0.7C19,4.9,19,4.9,19,5c0,0-0.1,0.1-0.2,0.1h-0.6l0,2.8
		c0,0.1,0,0.2-0.1,0.2c-0.1,0-0.1,0.1-0.2,0.1h-0.8c-0.2,0-0.3-0.1-0.3-0.3l0-2.8h-0.3c-0.2,0-0.3-0.1-0.3-0.3V4.1
		c0-0.2,0.1-0.3,0.3-0.3h0.3L16.9,3z"/>
	<path class="st0" d="M19.3,4c0-0.1,0-0.2,0-0.2c0-0.1,0.1-0.1,0.2-0.1h0.8c0.1,0,0.1,0,0.1,0.1s0.1,0.1,0.1,0.1l1,2.8l1-2.8
		c0-0.1,0.1-0.1,0.1-0.1c0,0,0.1,0,0.2,0h0.9c0.1,0,0.1,0,0.2,0c0,0,0.1,0,0.1,0.1c0,0,0,0.1,0,0.1c0,0,0,0.1,0,0.1
		c-0.1,0.2-0.2,0.5-0.3,0.7c-0.1,0.3-0.2,0.5-0.3,0.8c-0.1,0.3-0.2,0.6-0.3,0.8c-0.1,0.3-0.2,0.6-0.3,0.8c-0.1,0.3-0.2,0.5-0.3,0.8
		c-0.1,0.3-0.2,0.5-0.3,0.7c-0.1,0.2-0.2,0.4-0.2,0.6c-0.1,0.2-0.1,0.3-0.1,0.4l0,0c0,0.1,0,0.1-0.1,0.1c0,0-0.1,0.1-0.2,0.1h-0.8
		c-0.1,0-0.2,0-0.2-0.1c0,0-0.1-0.1-0.1-0.2c0,0,0-0.1,0-0.1c0,0,0,0,0,0L20.9,8L19.3,4z"/>
	<path class="st1" d="M29.8,7c-0.1,0.2-0.2,0.3-0.3,0.5c-0.1,0.2-0.2,0.3-0.4,0.4C29,8,28.8,8,28.6,8.1c-0.2,0.1-0.4,0.1-0.7,0.1
		c-0.3,0-0.6-0.1-0.9-0.2c-0.3-0.1-0.5-0.3-0.7-0.5c-0.2-0.2-0.3-0.4-0.5-0.7c-0.1-0.3-0.2-0.6-0.2-0.9c0-0.3,0.1-0.6,0.2-0.9
		c0.1-0.3,0.3-0.5,0.5-0.7c0.2-0.2,0.4-0.4,0.7-0.5c0.3-0.1,0.6-0.2,0.9-0.2c0.2,0,0.5,0,0.7,0.1c0.2,0.1,0.4,0.1,0.5,0.3
		c0.2,0.1,0.3,0.2,0.4,0.4c0.1,0.1,0.2,0.3,0.3,0.5L29.3,5c-0.1-0.3-0.3-0.5-0.5-0.7c-0.2-0.2-0.5-0.2-0.8-0.2c-0.2,0-0.4,0-0.6,0.1
		c-0.2,0.1-0.4,0.2-0.5,0.4c-0.1,0.2-0.3,0.3-0.4,0.6c-0.1,0.2-0.1,0.5-0.1,0.7c0,0.3,0,0.5,0.1,0.7c0.1,0.2,0.2,0.4,0.4,0.6
		c0.1,0.2,0.3,0.3,0.5,0.4c0.2,0.1,0.4,0.1,0.6,0.1c0.3,0,0.6-0.1,0.9-0.2c0.2-0.2,0.4-0.4,0.5-0.7L29.8,7z"/>
	<path class="st1" d="M33.5,7.3L33.5,7.3c-0.2,0.3-0.4,0.5-0.6,0.6c-0.3,0.2-0.6,0.3-0.9,0.3c-0.2,0-0.5,0-0.7-0.1
		C31,8,30.9,7.9,30.7,7.8c-0.1-0.1-0.3-0.3-0.3-0.5c-0.1-0.2-0.1-0.4-0.1-0.6c0-0.2,0-0.4,0.1-0.6c0.1-0.2,0.2-0.3,0.4-0.5
		c0.2-0.1,0.4-0.2,0.6-0.3s0.5-0.1,0.7-0.1c0.3,0,0.6,0,0.8,0.1c0.2,0.1,0.4,0.1,0.6,0.2V5.4c0-0.2,0-0.4-0.1-0.5
		c-0.1-0.2-0.2-0.3-0.3-0.4c-0.1-0.1-0.3-0.2-0.4-0.3c-0.2-0.1-0.3-0.1-0.5-0.1c-0.3,0-0.5,0.1-0.7,0.2c-0.2,0.1-0.4,0.3-0.5,0.5
		l-0.5-0.3c0.2-0.3,0.4-0.5,0.7-0.6c0.3-0.2,0.6-0.2,1-0.2c0.3,0,0.5,0,0.8,0.1c0.2,0.1,0.4,0.2,0.6,0.4c0.2,0.2,0.3,0.3,0.4,0.6
		C34,4.9,34,5.1,34,5.4v2.7h-0.5V7.3z M33.5,6.1c-0.2-0.1-0.4-0.2-0.6-0.3c-0.2-0.1-0.4-0.1-0.7-0.1c-0.2,0-0.4,0-0.5,0.1
		c-0.2,0-0.3,0.1-0.4,0.2c-0.1,0.1-0.2,0.2-0.3,0.3c-0.1,0.1-0.1,0.3-0.1,0.4c0,0.1,0,0.3,0.1,0.4c0.1,0.1,0.1,0.2,0.3,0.3
		s0.2,0.1,0.4,0.2c0.1,0,0.3,0.1,0.4,0.1c0.2,0,0.4,0,0.6-0.1c0.2-0.1,0.3-0.2,0.5-0.3c0.1-0.1,0.3-0.3,0.3-0.5
		C33.4,6.6,33.5,6.4,33.5,6.1z"/>
	<path class="st1" d="M35,8.1V3.7h0.5v0.8h0c0-0.1,0.1-0.2,0.2-0.4c0.1-0.1,0.2-0.2,0.3-0.3c0.1-0.1,0.2-0.1,0.4-0.2
		c0.1,0,0.2-0.1,0.4-0.1c0.1,0,0.2,0,0.3,0c0.1,0,0.2,0.1,0.3,0.1l-0.2,0.5c-0.1-0.1-0.3-0.1-0.5-0.1c-0.2,0-0.3,0-0.4,0.1
		c-0.1,0.1-0.3,0.2-0.4,0.3c-0.1,0.1-0.2,0.3-0.3,0.5c-0.1,0.2-0.1,0.4-0.1,0.6v2.4H35z"/>
	<path class="st1" d="M37.9,8.1V3.7h0.5v0.8h0c0-0.1,0.1-0.2,0.2-0.4C38.8,4,38.9,3.9,39,3.9c0.1-0.1,0.2-0.1,0.4-0.2
		c0.1,0,0.2-0.1,0.4-0.1c0.1,0,0.2,0,0.3,0c0.1,0,0.2,0.1,0.3,0.1l-0.2,0.5c-0.1-0.1-0.3-0.1-0.5-0.1c-0.2,0-0.3,0-0.4,0.1
		c-0.1,0.1-0.3,0.2-0.4,0.3c-0.1,0.1-0.2,0.3-0.3,0.5c-0.1,0.2-0.1,0.4-0.1,0.6v2.4H37.9z"/>
	<path class="st1" d="M42.6,3.6c0.3,0,0.6,0.1,0.9,0.2c0.3,0.1,0.5,0.3,0.7,0.5c0.2,0.2,0.3,0.4,0.5,0.7c0.1,0.3,0.2,0.6,0.2,0.9
		c0,0.3-0.1,0.6-0.2,0.9c-0.1,0.3-0.3,0.5-0.5,0.7c-0.2,0.2-0.4,0.4-0.7,0.5c-0.3,0.1-0.6,0.2-0.9,0.2c-0.3,0-0.6-0.1-0.9-0.2
		c-0.3-0.1-0.5-0.3-0.7-0.5c-0.2-0.2-0.3-0.4-0.5-0.7c-0.1-0.3-0.2-0.6-0.2-0.9c0-0.3,0.1-0.6,0.2-0.9c0.1-0.3,0.3-0.5,0.5-0.7
		c0.2-0.2,0.4-0.4,0.7-0.5C41.9,3.7,42.2,3.6,42.6,3.6z M42.6,7.7c0.2,0,0.4,0,0.6-0.1c0.2-0.1,0.4-0.2,0.5-0.4
		C43.8,7,43.9,6.9,44,6.6c0.1-0.2,0.1-0.5,0.1-0.7c0-0.3,0-0.5-0.1-0.7c-0.1-0.2-0.2-0.4-0.4-0.6c-0.2-0.2-0.3-0.3-0.5-0.4
		c-0.2-0.1-0.4-0.1-0.6-0.1s-0.4,0-0.6,0.1c-0.2,0.1-0.4,0.2-0.5,0.4c-0.2,0.2-0.3,0.3-0.4,0.6c-0.1,0.2-0.1,0.5-0.1,0.7
		c0,0.3,0,0.5,0.1,0.7c0.1,0.2,0.2,0.4,0.4,0.6c0.2,0.2,0.3,0.3,0.5,0.4C42.1,7.7,42.3,7.7,42.6,7.7z"/>
	<path class="st1" d="M45.9,4.2h-0.8V3.7h0.8V2.4h0.6v1.3h1.1v0.5h-1.1v2.7c0,0.3,0.1,0.5,0.2,0.6c0.1,0.1,0.3,0.2,0.4,0.2
		c0.1,0,0.2,0,0.2,0c0.1,0,0.1,0,0.2-0.1l0.2,0.5c-0.1,0-0.2,0.1-0.3,0.1c-0.1,0-0.2,0-0.4,0c-0.3,0-0.6-0.1-0.8-0.3
		C46.1,7.8,46,7.7,46,7.5c-0.1-0.1-0.1-0.3-0.1-0.5V4.2z"/>
</g>
</svg>
